<?xml version="1.0" standalone="no"?>
<!DOCTYPE svg PUBLIC "-//W3C//DTD SVG 20010904//EN"
 "http://www.w3.org/TR/2001/REC-SVG-20010904/DTD/svg10.dtd">
<svg version="1.0" xmlns="http://www.w3.org/2000/svg"
 width="50.000000pt" height="50.000000pt" viewBox="0 0 50.000000 50.000000"
 preserveAspectRatio="xMidYMid meet">
<metadata>
Created by potrace 1.16, written by Peter Selinger 2001-2019
</metadata>
<g transform="translate(0.000000,50.000000) scale(0.100000,-0.100000)"
fill="#000000" stroke="none">
<path d="M176 475 c-3 -8 -14 -15 -24 -15 -23 0 -42 -19 -42 -42 0 -10 -7 -21
-15 -24 -22 -9 -22 -139 0 -148 8 -3 15 -12 15 -21 0 -8 5 -23 11 -33 9 -14 7
-27 -10 -60 -30 -59 -28 -72 14 -72 26 0 39 -6 51 -25 21 -32 50 -32 58 0 8
32 20 32 34 0 15 -32 35 -32 56 0 13 20 25 25 56 25 22 0 40 2 40 5 0 3 -12
29 -26 57 -21 41 -24 56 -15 70 6 10 11 25 11 33 0 9 7 18 15 21 22 9 22 139
0 148 -8 3 -15 14 -15 24 0 23 -19 42 -42 42 -10 0 -21 7 -24 15 -5 11 -23 15
-74 15 -51 0 -69 -4 -74 -15z m134 -30 c7 -8 19 -15 26 -15 8 0 19 -11 24 -24
5 -13 14 -27 19 -31 6 -3 11 -28 11 -55 0 -27 -5 -52 -11 -55 -5 -4 -14 -18
-19 -31 -5 -13 -16 -24 -24 -24 -7 0 -19 -7 -26 -15 -17 -20 -103 -20 -120 0
-7 8 -19 15 -26 15 -8 0 -19 11 -24 24 -5 13 -14 27 -19 31 -17 10 -13 100 4
115 8 7 15 19 15 26 0 8 11 19 24 24 13 5 27 14 31 19 10 17 100 13 115 -4z"/>
</g>
</svg>
