<?xml version="1.0" standalone="no"?>
<!DOCTYPE svg PUBLIC "-//W3C//DTD SVG 20010904//EN"
 "http://www.w3.org/TR/2001/REC-SVG-20010904/DTD/svg10.dtd">
<svg version="1.0" xmlns="http://www.w3.org/2000/svg"
 width="512.000000pt" height="512.000000pt" viewBox="0 0 512.000000 512.000000"
 preserveAspectRatio="xMidYMid meet">
<metadata>
Created by potrace 1.16, written by Peter Selinger 2001-2019
</metadata>
<g transform="translate(0.000000,512.000000) scale(0.100000,-0.100000)"
fill="#000000" stroke="none">
<path d="M1955 4790 c-166 -22 -417 -86 -510 -130 -11 -5 -45 -19 -75 -30
-131 -50 -333 -167 -478 -278 -235 -179 -461 -435 -588 -665 -127 -228 -192
-396 -254 -652 -22 -92 -50 -358 -50 -475 0 -197 37 -449 95 -645 82 -278 259
-605 438 -808 389 -445 887 -712 1462 -782 226 -28 550 -10 770 43 220 53 462
150 615 247 22 14 42 25 45 25 3 0 11 5 18 10 7 6 43 31 82 56 38 26 84 58
101 73 18 14 47 37 65 51 36 27 215 203 264 260 298 345 493 799 535 1245 13
146 13 355 -1 412 -22 87 -120 128 -196 82 -57 -35 -63 -59 -63 -237 0 -139
-16 -325 -36 -409 -17 -73 -66 -250 -74 -268 -5 -11 -17 -42 -26 -70 -17 -52
-103 -236 -114 -245 -4 -3 -19 -27 -33 -53 -32 -56 -58 -98 -72 -113 -5 -6
-17 -22 -25 -34 -69 -105 -271 -313 -398 -409 -425 -322 -932 -457 -1467 -390
-180 23 -427 98 -607 185 -64 32 -231 130 -262 155 -6 5 -47 37 -91 71 -329
259 -576 636 -685 1048 -174 655 7 1361 477 1857 85 89 235 221 282 247 9 5
18 12 21 16 13 16 195 123 270 158 172 81 323 130 526 171 28 5 110 15 183 21
148 13 406 0 502 -24 30 -7 72 -17 94 -20 127 -21 396 -126 530 -206 33 -20
67 -39 75 -43 8 -4 51 -32 94 -62 67 -47 86 -55 124 -55 84 0 138 57 135 142
-1 20 -9 49 -19 63 -14 21 -194 155 -209 155 -2 0 -33 17 -67 38 -233 141
-576 249 -892 281 -154 15 -359 12 -511 -9z"/>
<path d="M4505 4649 c-76 -11 -135 -33 -205 -76 -36 -23 -397 -376 -1053
-1031 -548 -549 -1002 -999 -1007 -1000 -6 -2 -173 159 -373 359 -212 212
-386 378 -420 400 -91 59 -163 79 -286 79 -87 0 -118 -4 -173 -24 -114 -42
-208 -113 -264 -203 -10 -15 -21 -30 -24 -33 -4 -3 -19 -36 -35 -75 -26 -64
-29 -81 -28 -190 0 -128 13 -178 69 -279 27 -49 1274 -1302 1339 -1345 70 -48
129 -64 209 -59 152 10 45 -88 1481 1351 1018 1019 1296 1303 1315 1342 14 28
28 52 31 55 10 9 27 92 34 165 8 88 -15 205 -56 288 -27 52 -107 144 -164 187
-44 33 -154 78 -216 89 -73 12 -88 12 -174 0z m190 -293 c56 -26 93 -62 124
-121 29 -54 29 -164 1 -223 -14 -30 -394 -416 -1274 -1296 -690 -690 -1264
-1259 -1276 -1266 -12 -6 -34 -9 -48 -5 -16 4 -258 238 -657 638 -582 584
-632 636 -649 685 -42 120 18 263 133 318 53 26 139 30 203 9 49 -17 82 -47
448 -410 217 -215 412 -401 433 -413 54 -31 165 -31 216 -1 20 12 497 482
1061 1044 564 562 1036 1029 1050 1037 59 36 164 38 235 4z"/>
</g>
</svg>
