<?xml version="1.0" standalone="no"?>
<!DOCTYPE svg PUBLIC "-//W3C//DTD SVG 20010904//EN"
 "http://www.w3.org/TR/2001/REC-SVG-20010904/DTD/svg10.dtd">
<svg version="1.0" xmlns="http://www.w3.org/2000/svg"
 width="192.000000pt" height="192.000000pt" viewBox="0 0 192.000000 192.000000"
 preserveAspectRatio="xMidYMid meet">
<metadata>
Created by potrace 1.16, written by Peter Selinger 2001-2019
</metadata>
<g transform="translate(0.000000,192.000000) scale(0.100000,-0.100000)"
fill="#000000" stroke="none">
<path d="M745 1460 c-6 -10 1 -14 47 -24 14 -3 41 -18 58 -32 l31 -27 -31 -32
c-34 -36 -44 -92 -20 -120 14 -17 6 -45 -13 -45 -20 0 -84 71 -101 112 -9 20
-24 43 -35 50 -10 8 -29 35 -42 61 -13 26 -29 47 -36 47 -18 0 -16 -9 8 -59
13 -28 18 -52 14 -71 -4 -18 0 -40 10 -59 16 -33 101 -105 135 -116 21 -7 26
-20 11 -29 -5 -3 -65 21 -134 53 -215 102 -313 122 -378 78 -70 -47 -56 -146
31 -203 22 -15 40 -35 40 -45 0 -26 48 -59 86 -59 l34 0 -20 -32 c-29 -47 -26
-92 6 -117 53 -42 114 -20 248 87 81 65 90 70 102 54 12 -15 10 -20 -13 -37
-69 -51 -105 -91 -133 -147 -33 -68 -39 -131 -15 -158 16 -18 13 -36 -20 -114
-6 -14 -4 -17 11 -14 12 2 24 19 35 50 8 26 22 55 31 65 8 10 18 43 21 73 3
30 14 75 26 100 l20 45 -6 -56 c-8 -82 16 -155 73 -218 26 -29 61 -59 78 -68
17 -8 41 -24 53 -35 l22 -20 28 21 c15 12 48 36 73 54 87 63 137 167 126 262
l-6 50 21 -39 c12 -22 24 -66 27 -98 3 -39 10 -63 22 -71 9 -7 25 -36 34 -64
10 -31 24 -53 32 -53 18 0 18 10 -2 60 -13 33 -14 46 -5 66 38 85 -24 212
-149 305 -30 23 -33 29 -21 42 11 14 22 8 99 -54 154 -123 229 -141 270 -62
17 31 15 46 -13 87 l-24 36 38 0 c37 0 81 31 81 57 0 7 20 28 44 48 110 90 93
211 -32 223 -67 6 -140 -17 -301 -94 -74 -35 -138 -64 -142 -64 -22 0 -6 27
26 44 20 11 56 41 81 68 42 45 46 53 41 86 -4 26 0 51 13 81 24 51 25 61 6 61
-7 0 -23 -22 -35 -50 -12 -27 -30 -54 -40 -60 -11 -5 -25 -26 -32 -47 -6 -20
-30 -56 -52 -80 -38 -41 -41 -42 -58 -27 -16 15 -17 19 -4 37 8 12 15 32 15
45 0 30 -25 78 -47 91 -16 9 -16 11 2 31 25 27 68 50 95 50 11 0 20 7 20 15 0
8 -8 15 -17 15 -30 -1 -98 -36 -119 -61 -17 -21 -27 -24 -94 -24 -69 0 -77 2
-97 26 -39 45 -122 75 -138 49z m318 -116 c37 -20 54 -57 41 -92 -8 -22 -15
-26 -35 -22 -38 7 -162 5 -185 -4 -17 -6 -23 -2 -33 22 -36 86 107 150 212 96z
m-627 -115 c24 -6 44 -13 44 -15 0 -3 -30 -42 -67 -88 l-67 -84 -29 20 c-16
12 -38 35 -48 52 -58 94 24 151 167 115z m1238 -10 c41 -32 36 -81 -13 -130
-21 -22 -44 -39 -50 -39 -11 0 -131 147 -131 161 0 13 59 27 116 28 38 1 58
-4 78 -20z m-618 -20 c57 -18 104 -92 104 -164 0 -71 -67 -155 -124 -155 -32
0 -95 42 -121 82 -43 65 -50 162 -17 225 18 32 77 37 158 12z m-412 -58 c81
-39 126 -65 126 -75 0 -16 -10 -19 -85 -31 -22 -4 -82 -20 -133 -36 -105 -34
-158 -35 -179 -3 -13 20 -8 28 58 113 40 50 75 91 80 91 4 0 64 -27 133 -59z
m867 -18 c34 -43 67 -84 72 -91 7 -8 6 -21 -1 -37 -9 -20 -19 -25 -50 -25 -21
0 -63 8 -93 18 -46 16 -145 41 -226 58 -50 10 -23 36 100 94 67 33 125 60 129
60 4 0 35 -35 69 -77z m-741 -126 c0 -18 -23 -42 -87 -94 -132 -106 -189 -127
-227 -84 -22 24 -15 50 26 97 39 45 70 60 165 83 107 27 123 26 123 -2z m528
3 c106 -25 155 -51 187 -97 43 -64 30 -103 -36 -103 -40 0 -75 21 -181 107
-82 66 -90 76 -82 97 8 20 11 20 112 -4z m-318 -160 c36 0 69 7 95 20 22 11
40 20 41 20 4 0 44 -67 44 -74 0 -4 -21 -16 -47 -28 -84 -37 -278 -22 -307 24
-7 11 -3 24 13 46 l22 31 42 -19 c25 -12 65 -20 97 -20z m-110 -177 c66 -18
194 -13 258 10 l43 15 -3 -31 c-3 -27 -10 -36 -53 -56 -72 -34 -198 -34 -270
0 -41 20 -51 30 -56 57 -6 28 -4 32 10 26 9 -3 41 -13 71 -21z"/>
</g>
</svg>
