<?xml version="1.0" standalone="no"?>
<!DOCTYPE svg PUBLIC "-//W3C//DTD SVG 20010904//EN"
 "http://www.w3.org/TR/2001/REC-SVG-20010904/DTD/svg10.dtd">
<svg version="1.0" xmlns="http://www.w3.org/2000/svg"
 width="50.000000pt" height="50.000000pt" viewBox="0 0 50.000000 50.000000"
 preserveAspectRatio="xMidYMid meet">
<metadata>
Created by potrace 1.16, written by Peter Selinger 2001-2019
</metadata>
<g transform="translate(0.000000,50.000000) scale(0.100000,-0.100000)"
fill="#000000" stroke="none">
<path d="M371 476 c-7 -8 -51 -25 -98 -37 -136 -36 -203 -101 -203 -198 0 -38
5 -49 45 -88 25 -25 43 -49 40 -53 -9 -14 -73 -40 -100 -40 -17 0 -25 -5 -22
-12 7 -22 82 -14 124 14 l39 26 27 -24 c49 -42 138 -30 185 26 56 66 69 199
31 328 -23 74 -41 90 -68 58z m43 -91 c31 -125 17 -223 -40 -280 -26 -27 -43
-35 -70 -35 -38 0 -74 15 -74 31 0 5 23 39 50 75 69 89 105 163 90 178 -9 8
-14 8 -17 0 -9 -26 -77 -132 -109 -171 -20 -24 -44 -43 -54 -43 -11 0 -35 16
-55 35 -39 39 -45 76 -21 123 30 57 80 88 189 116 37 10 70 22 73 27 12 20 22
5 38 -56z"/>
</g>
</svg>
