<?xml version="1.0" standalone="no"?>
<!DOCTYPE svg PUBLIC "-//W3C//DTD SVG 20010904//EN"
 "http://www.w3.org/TR/2001/REC-SVG-20010904/DTD/svg10.dtd">
<svg version="1.0" xmlns="http://www.w3.org/2000/svg"
 width="50.000000pt" height="50.000000pt" viewBox="0 0 50.000000 50.000000"
 preserveAspectRatio="xMidYMid meet">
<metadata>
Created by potrace 1.16, written by Peter Selinger 2001-2019
</metadata>
<g transform="translate(0.000000,50.000000) scale(0.100000,-0.100000)"
fill="#000000" stroke="none">
<path d="M61 444 c-65 -55 -32 -144 103 -280 136 -135 225 -168 280 -103 40
47 34 72 -22 108 -50 32 -90 39 -109 20 -13 -13 -60 22 -107 77 -24 30 -25 34
-12 60 16 30 14 37 -32 107 -30 45 -58 48 -101 11z m85 -44 c27 -40 27 -41 10
-77 l-17 -36 74 -74 74 -74 36 17 c36 17 37 17 77 -10 22 -14 40 -29 40 -33 0
-16 -45 -53 -64 -53 -81 0 -316 234 -316 314 0 20 36 66 52 66 4 0 20 -18 34
-40z"/>
</g>
</svg>
