<?xml version="1.0" standalone="no"?>
<!DOCTYPE svg PUBLIC "-//W3C//DTD SVG 20010904//EN"
 "http://www.w3.org/TR/2001/REC-SVG-20010904/DTD/svg10.dtd">
<svg version="1.0" xmlns="http://www.w3.org/2000/svg"
 width="50.000000pt" height="50.000000pt" viewBox="0 0 50.000000 50.000000"
 preserveAspectRatio="xMidYMid meet">
<metadata>
Created by potrace 1.16, written by Peter Selinger 2001-2019
</metadata>
<g transform="translate(0.000000,50.000000) scale(0.100000,-0.100000)"
fill="#000000" stroke="none">
<path d="M48 473 c-36 -9 -14 -95 37 -145 23 -23 37 -28 76 -28 32 0 49 4 50
13 1 14 28 -42 29 -60 0 -9 -20 -13 -70 -13 l-70 0 0 -39 c0 -22 4 -41 9 -43
5 -1 15 -32 22 -68 l14 -65 105 0 105 0 14 65 c7 36 17 67 22 68 5 2 9 21 9
42 l0 39 -69 3 -68 3 9 25 c6 15 12 20 15 13 3 -8 25 -13 58 -13 46 0 58 4 84
30 35 35 52 97 30 111 -8 5 -42 9 -76 9 -71 0 -99 -18 -110 -70 -8 -40 -25
-38 -22 3 4 58 -1 74 -27 101 -24 23 -34 26 -93 25 -36 -1 -74 -3 -83 -6z
m299 -335 c-3 -13 -9 -40 -12 -60 l-7 -38 -78 0 -78 0 -7 37 c-3 21 -9 48 -12
61 -5 22 -4 22 97 22 101 0 102 0 97 -22z"/>
</g>
</svg>
