<?xml version="1.0" standalone="no"?>
<!DOCTYPE svg PUBLIC "-//W3C//DTD SVG 20010904//EN"
 "http://www.w3.org/TR/2001/REC-SVG-20010904/DTD/svg10.dtd">
<svg version="1.0" xmlns="http://www.w3.org/2000/svg"
 width="50.000000pt" height="50.000000pt" viewBox="0 0 50.000000 50.000000"
 preserveAspectRatio="xMidYMid meet">
<metadata>
Created by potrace 1.16, written by Peter Selinger 2001-2019
</metadata>
<g transform="translate(0.000000,50.000000) scale(0.100000,-0.100000)"
fill="#000000" stroke="none">
<path d="M155 469 c-33 -16 -75 -32 -92 -35 -33 -6 -33 -7 -33 -64 0 -77 31
-175 80 -247 38 -58 114 -123 143 -123 23 0 111 84 147 140 42 65 70 157 70
230 0 57 0 58 -32 64 -18 3 -62 19 -96 36 -78 37 -110 37 -187 -1z m158 -21
c23 -12 60 -27 82 -33 37 -11 40 -15 43 -52 7 -89 -70 -244 -151 -303 l-41
-30 -40 34 c-83 68 -152 212 -144 301 3 35 7 39 43 50 22 6 58 21 80 33 51 27
76 27 128 0z"/>
</g>
</svg>
