<?xml version="1.0" encoding="UTF-8"?>
<svg version="1.1" xmlns="http://www.w3.org/2000/svg" width="50" height="50">
<path d="M0 0 C11.22 0 22.44 0 34 0 C34 4.95 34 9.9 34 15 C36.31 15.33 38.62 15.66 41 16 C41 16.99 41 17.98 41 19 C39.56208484 18.85831863 38.1246763 18.71148957 36.6875 18.5625 C35.88699219 18.48128906 35.08648437 18.40007813 34.26171875 18.31640625 C32 18 32 18 29 17 C26.88253801 16.80438422 26.88253801 16.80438422 24.625 16.8125 C23.49964844 16.79123047 23.49964844 16.79123047 22.3515625 16.76953125 C19.92841024 16.89208921 19.92841024 16.89208921 17.57421875 18.00390625 C14.60244353 19.15383445 12.35998472 19.20144541 9.1875 19.125 C7.72376953 19.09792969 7.72376953 19.09792969 6.23046875 19.0703125 C5.49441406 19.04710938 4.75835937 19.02390625 4 19 C4 17.68 4 16.36 4 15 C4.99580078 15.03480469 4.99580078 15.03480469 6.01171875 15.0703125 C11.37295877 15.27450255 11.37295877 15.27450255 16.5 14 C21.33951844 12.06419262 27.10521699 12.36840566 32 14 C31.505 8.555 31.505 8.555 31 3 C21.76 3 12.52 3 3 3 C3 16.86 3 30.72 3 45 C12.24 45 21.48 45 31 45 C31.495 40.05 31.495 40.05 32 35 C32.66 35 33.32 35 34 35 C34 39.29 34 43.58 34 48 C22.78 48 11.56 48 0 48 C0 43.05 0 38.1 0 33 C-2.31 32.67 -4.62 32.34 -7 32 C-7 31.01 -7 30.02 -7 29 C-5.02 29 -3.04 29 -1 29 C-0.67 27.68 -0.34 26.36 0 25 C-2.31 24.67 -4.62 24.34 -7 24 C-7 23.01 -7 22.02 -7 21 C-5.02 21 -3.04 21 -1 21 C-0.67 19.68 -0.34 18.36 0 17 C-2.31 16.67 -4.62 16.34 -7 16 C-7 15.01 -7 14.02 -7 13 C-5.02 13 -3.04 13 -1 13 C-0.67 8.71 -0.34 4.42 0 0 Z " fill="#000000" transform="translate(8,1)"/>
<path d="M0 0 C0 0.99 0 1.98 0 3 C-1.43791516 2.85831863 -2.8753237 2.71148957 -4.3125 2.5625 C-5.11300781 2.48128906 -5.91351563 2.40007813 -6.73828125 2.31640625 C-9 2 -9 2 -12 1 C-14.11746199 0.80438422 -14.11746199 0.80438422 -16.375 0.8125 C-17.50035156 0.79123047 -17.50035156 0.79123047 -18.6484375 0.76953125 C-21.07158976 0.89208921 -21.07158976 0.89208921 -23.42578125 2.00390625 C-26.39755647 3.15383445 -28.64001528 3.20144541 -31.8125 3.125 C-33.27623047 3.09792969 -33.27623047 3.09792969 -34.76953125 3.0703125 C-35.50558594 3.04710937 -36.24164063 3.02390625 -37 3 C-37 1.68 -37 0.36 -37 -1 C-36.00419922 -0.96519531 -36.00419922 -0.96519531 -34.98828125 -0.9296875 C-33.66376953 -0.90261719 -33.66376953 -0.90261719 -32.3125 -0.875 C-31.00732422 -0.84019531 -31.00732422 -0.84019531 -29.67578125 -0.8046875 C-7.46537288 -2.42588519 -7.46537288 -2.42588519 0 0 Z " fill="#000000" transform="translate(49,33)"/>
<path d="M0 0 C0 0.99 0 1.98 0 3 C-1.43791516 2.85831863 -2.8753237 2.71148957 -4.3125 2.5625 C-5.11300781 2.48128906 -5.91351563 2.40007813 -6.73828125 2.31640625 C-9 2 -9 2 -12 1 C-14.11746199 0.80438422 -14.11746199 0.80438422 -16.375 0.8125 C-17.50035156 0.79123047 -17.50035156 0.79123047 -18.6484375 0.76953125 C-21.07158976 0.89208921 -21.07158976 0.89208921 -23.42578125 2.00390625 C-26.39755647 3.15383445 -28.64001528 3.20144541 -31.8125 3.125 C-33.27623047 3.09792969 -33.27623047 3.09792969 -34.76953125 3.0703125 C-35.50558594 3.04710937 -36.24164063 3.02390625 -37 3 C-37 1.68 -37 0.36 -37 -1 C-36.00419922 -0.96519531 -36.00419922 -0.96519531 -34.98828125 -0.9296875 C-33.66376953 -0.90261719 -33.66376953 -0.90261719 -32.3125 -0.875 C-31.00732422 -0.84019531 -31.00732422 -0.84019531 -29.67578125 -0.8046875 C-7.46537288 -2.42588519 -7.46537288 -2.42588519 0 0 Z " fill="#000000" transform="translate(49,25)"/>
</svg>
