<?xml version="1.0" standalone="no"?>
<!DOCTYPE svg PUBLIC "-//W3C//DTD SVG 20010904//EN"
 "http://www.w3.org/TR/2001/REC-SVG-20010904/DTD/svg10.dtd">
<svg version="1.0" xmlns="http://www.w3.org/2000/svg"
 width="50.000000pt" height="50.000000pt" viewBox="0 0 50.000000 50.000000"
 preserveAspectRatio="xMidYMid meet">
<metadata>
Created by potrace 1.16, written by Peter Selinger 2001-2019
</metadata>
<g transform="translate(0.000000,50.000000) scale(0.100000,-0.100000)"
fill="#000000" stroke="none">
<path d="M0 210 l0 -160 33 0 c24 0 35 -6 42 -22 15 -33 95 -33 110 0 9 20 17
22 75 22 58 0 66 -2 75 -23 8 -18 18 -22 55 -22 37 0 47 4 55 23 6 13 18 22
32 22 22 0 23 4 23 79 0 74 -2 82 -33 123 -32 42 -35 43 -95 46 l-62 3 0 34 0
35 -155 0 -155 0 0 -160z m285 0 l0 -135 -45 -3 c-39 -2 -46 0 -55 20 -8 19
-18 23 -55 23 -37 0 -47 -4 -55 -23 -6 -15 -17 -22 -30 -20 -19 3 -20 12 -23
127 -1 69 0 131 2 138 4 11 34 13 133 11 l128 -3 0 -135z m120 60 c4 -6 -7
-10 -24 -10 -30 0 -31 -1 -31 -50 l0 -50 66 0 65 0 -3 -42 c-3 -47 -18 -59
-33 -26 -8 19 -18 23 -55 23 -36 0 -47 -4 -56 -22 -6 -13 -14 -20 -17 -16 -9
8 -9 188 0 196 10 11 81 8 88 -3z"/>
</g>
</svg>
