<svg version="1.1" id="Layer_1" xmlns="http://www.w3.org/2000/svg" xmlns:xlink="http://www.w3.org/1999/xlink" x="0px" y="0px"
	 width="100%" viewBox="0 0 50 50" enable-background="new 0 0 50 50" xml:space="preserve">
<path fill="none" opacity="1.000000" stroke="#000000" stroke-linecap="round" stroke-linejoin="round" stroke-width="2.000000"
	d="
M31.000000,31.000000 
	C32.893158,31.661179 34.491554,32.947262 35.435944,34.538029 
	C38.785576,40.180275 43.601719,37.324734 48.851391,38.088028 
	C46.520329,32.595623 41.889374,30.592222 39.799149,26.572159 
	C42.260845,21.759514 46.521755,18.204250 48.266727,13.106050 
	C45.554890,12.009970 42.963329,12.892307 40.509247,12.448832 
	C37.837723,11.966062 37.670208,14.381591 37.123508,15.557425 
	C35.503735,19.041199 33.926392,22.409801 30.008003,24.804607 
	C27.975349,20.576292 29.578402,16.157259 28.844450,11.846252 
	C25.666666,11.281289 22.333334,11.281289 18.538649,11.955928 
	C22.476929,16.267141 20.468973,20.940569 20.673845,25.450085 
	C17.554445,23.615948 14.741146,20.369833 13.500000,18.000000 
	C10.312874,11.914530 9.877261,11.707095 2.824118,13.033066 
	C8.552078,24.340214 11.416216,38.422127 28.558731,38.411152 
	C29.738710,35.830109 27.748674,32.737717 30.500000,31.000000 
"/>
</svg>