<svg xmlns="http://www.w3.org/2000/svg"  viewBox="0 0 48 48" width="48px" height="48px"><path d="M 24.505859 3.0039062 C 13.210242 3.0039062 4.0117187 12.201399 4.0117188 23.496094 C 4.0117188 34.790789 13.210242 43.988281 24.505859 43.988281 C 35.801477 43.988281 44.998047 34.790789 44.998047 23.496094 C 44.998047 12.201399 35.801477 3.0039063 24.505859 3.0039062 z M 24.505859 6.0039062 C 34.178242 6.0039064 41.998047 13.824789 41.998047 23.496094 C 41.998047 33.167399 34.178242 40.988281 24.505859 40.988281 C 14.833477 40.988281 7.0117187 33.167399 7.0117188 23.496094 C 7.0117188 13.824789 14.833477 6.0039062 24.505859 6.0039062 z M 33.517578 13.966797 A 1.50015 1.50015 0 0 0 32.429688 14.445312 L 24.5 22.382812 L 16.568359 14.445312 A 1.50015 1.50015 0 0 0 15.492188 13.990234 A 1.50015 1.50015 0 0 0 14.445312 16.564453 L 23 25.126953 L 23 35.505859 A 1.50015 1.50015 0 1 0 26 35.505859 L 26 25.125 L 34.550781 16.564453 A 1.50015 1.50015 0 0 0 33.517578 13.966797 z"/></svg>