<?xml version="1.0" standalone="no"?>
<!DOCTYPE svg PUBLIC "-//W3C//DTD SVG 20010904//EN"
 "http://www.w3.org/TR/2001/REC-SVG-20010904/DTD/svg10.dtd">
<svg version="1.0" xmlns="http://www.w3.org/2000/svg"
 width="96.000000pt" height="96.000000pt" viewBox="0 0 96.000000 96.000000"
 preserveAspectRatio="xMidYMid meet">
<metadata>
Created by potrace 1.16, written by Peter Selinger 2001-2019
</metadata>
<g transform="translate(0.000000,96.000000) scale(0.100000,-0.100000)"
fill="#000000" stroke="none">
<path d="M304 895 c-8 -21 4 -35 30 -35 13 0 35 -9 49 -21 l26 -20 -19 -37
c-11 -20 -20 -46 -20 -58 0 -18 -10 -22 -66 -33 -121 -22 -237 -102 -276 -189
-24 -54 -17 -93 25 -128 28 -24 37 -26 107 -22 65 3 79 0 103 -18 15 -12 27
-28 27 -35 0 -26 58 -134 93 -174 19 -23 51 -49 71 -60 l35 -19 43 30 c51 37
123 138 139 197 6 22 20 51 32 63 19 20 29 21 96 17 94 -5 136 15 146 71 21
107 -116 237 -282 268 -59 11 -61 12 -67 46 -3 19 -13 43 -22 54 -17 18 -17
20 3 39 11 12 36 24 54 28 20 4 35 14 37 24 7 34 -27 29 -74 -10 -43 -34 -53
-38 -108 -39 -57 -1 -64 2 -108 38 -50 41 -66 46 -74 23z m119 -225 c9 0 17
-4 17 -10 0 -5 -6 -10 -13 -10 -22 0 -171 -97 -207 -135 -32 -34 -29 -33 32
13 67 51 191 116 208 110 4 -2 2 -18 -5 -35 -10 -22 -21 -33 -35 -33 -57 0
-165 -92 -177 -151 -7 -36 -34 -49 -103 -49 -122 0 -138 106 -31 203 75 68
185 111 261 101 19 -2 43 -4 53 -4z m308 -20 c70 -26 138 -77 170 -128 36 -57
37 -95 4 -127 -19 -20 -34 -25 -77 -25 -80 0 -94 7 -107 50 -16 53 -91 126
-144 141 -23 6 -47 13 -53 14 -12 4 -28 54 -20 62 9 9 148 -61 196 -98 58 -45
75 -55 66 -41 -12 20 -131 105 -183 130 -29 15 -53 29 -53 33 0 23 130 16 201
-11z m-316 -142 c-38 -40 -26 -37 22 6 60 52 30 -57 -32 -119 -67 -68 -145
-72 -145 -8 0 67 100 163 170 163 23 0 23 -2 -15 -42z m181 21 c44 -21 86 -68
104 -115 13 -33 -10 -74 -41 -74 -54 0 -141 82 -159 150 -6 23 -10 44 -8 46 2
1 26 -16 53 -38 l50 -42 -45 47 c-41 44 -43 47 -20 47 13 0 43 -9 66 -21z m52
-213 c6 -3 7 -18 3 -32 l-7 -27 -159 0 c-156 0 -159 1 -167 23 -11 29 -3 37
42 43 46 7 276 1 288 -7z"/>
</g>
</svg>
