<?xml version="1.0" standalone="no"?>
<!DOCTYPE svg PUBLIC "-//W3C//DTD SVG 20010904//EN"
 "http://www.w3.org/TR/2001/REC-SVG-20010904/DTD/svg10.dtd">
<svg version="1.0" xmlns="http://www.w3.org/2000/svg"
 width="300.000000pt" height="300.000000pt" viewBox="0 0 300.000000 300.000000"
 preserveAspectRatio="xMidYMid meet">
<metadata>
Created by potrace 1.10, written by Peter Selinger 2001-2011
</metadata>
<g transform="translate(0.000000,300.000000) scale(0.100000,-0.100000)"
fill="#000000" stroke="none">
<path d="M1271 2132 c-13 -25 -2 -39 44 -54 30 -10 45 -23 60 -51 l20 -38 -28
-21 c-59 -43 -92 -148 -67 -214 10 -25 9 -26 -12 -19 -13 4 -45 14 -73 22 -30
10 -91 16 -150 17 -120 1 -181 -21 -244 -89 -73 -79 -74 -173 -5 -254 78 -90
220 -122 328 -73 l48 22 -5 -38 c-11 -92 27 -213 90 -283 43 -47 210 -189 224
-189 13 0 179 141 223 190 59 65 79 120 84 227 l4 92 40 -20 c51 -26 131 -35
185 -20 62 17 134 70 167 124 74 120 5 249 -158 299 -83 25 -189 21 -285 -12
-75 -25 -72 -25 -61 6 24 62 -3 150 -62 204 l-33 30 20 38 c15 28 30 40 62 50
46 15 58 32 39 57 -30 42 -156 -28 -171 -94 -6 -27 -9 -29 -56 -29 -41 0 -49
3 -49 19 0 23 -54 85 -91 105 -38 19 -76 18 -88 -4z m309 -212 c44 -31 63 -74
57 -128 -17 -148 -192 -175 -263 -40 -63 121 93 249 206 168z m-170 -290 c-10
-6 -18 -2 -29 13 -8 12 -20 25 -25 29 -6 4 -17 12 -25 17 -8 5 -11 16 -7 27 6
15 13 11 54 -29 38 -38 44 -49 32 -57z m270 76 c0 -8 -9 -17 -20 -21 -11 -3
-29 -20 -41 -36 -13 -19 -25 -27 -31 -21 -5 5 6 25 29 49 40 42 63 53 63 29z
m-425 -30 c45 -15 87 -31 93 -35 18 -11 -144 -167 -216 -209 -50 -29 -64 -32
-115 -29 -44 2 -67 10 -99 33 -48 33 -88 87 -88 116 0 57 53 117 129 145 57
21 199 11 296 -21z m766 24 c84 -23 155 -100 144 -155 -14 -73 -111 -145 -194
-145 -72 0 -139 38 -241 136 -49 48 -90 90 -90 94 0 9 126 56 185 69 55 12
153 13 196 1z m-383 -173 l67 -67 -204 0 -204 0 19 23 c10 12 38 42 61 68 l43
45 75 -1 75 0 68 -68z m-349 -86 c0 -3 -16 -19 -35 -35 -33 -27 -36 -28 -52
-12 -16 17 -15 20 23 52 36 32 40 34 52 18 7 -10 13 -20 12 -23z m496 -6 c28
-23 29 -25 13 -42 -17 -16 -19 -16 -46 10 -15 15 -33 27 -39 27 -8 0 -8 7 0
24 13 27 20 25 72 -19z m-44 -85 c1 -22 2 -47 3 -56 1 -13 -29 -15 -241 -17
-271 -2 -259 -6 -247 70 l6 43 239 0 239 0 1 -40z m-483 -127 c-13 -16 -28 -7
-28 18 0 16 3 18 19 7 15 -9 17 -16 9 -25z m512 14 c0 -8 -3 -17 -7 -20 -9 -9
-34 13 -27 24 8 14 34 11 34 -4z m-46 -49 c-3 -7 -20 -34 -38 -60 l-31 -48
-156 0 -155 0 -21 28 c-11 15 -27 42 -37 60 l-17 32 231 0 c182 0 230 -3 224
-12z m-304 -157 c0 -5 -6 -14 -13 -20 -11 -8 -18 -6 -32 9 -18 20 -17 20 13
20 18 0 32 -4 32 -9z m205 -11 c-14 -15 -21 -17 -32 -9 -22 19 -15 29 19 29
30 0 31 0 13 -20z m-85 -40 c-19 -16 -37 -29 -40 -29 -3 0 -21 13 -40 29 l-34
30 74 0 74 0 -34 -30z"/>
</g>
</svg>
